PathFileType	4	(X/Y/Z)	Patient4_TMGait_0pt6_02_right_39.trc.trc
DataRate	CameraRate	NumFrames	NumMarkers	Units	OrigDataRate	OrigDataStartFrame	OrigNumFrames
83.832335329341	83.832335329341	5	33	mm	83.832335329341	89	       141
Frame#	Time	Sacral			L.Shoulder			Chest			R.Shoulder			Neck			R.ASIS			L.ASIS			R.Thigh.Superior			R.Thigh.Lateral			R.Thigh.Inferior			R.Patella			L.Thigh.Superior			L.Thigh.Lateral			L.Thigh.Inferior			L.Patella			L.Shank.Superior			L.Shank.Lateral			L.Shank.Inferior			R.Shank.Superior			R.Shank.Lateral			R.Shank.Inferior			R.Heel			R.Midfoot.Superior			R.Midfoot.Lateral			R.Toe			L.Heel			L.Midfoot.Lateral			L.Midfoot.Superior			L.Toe			L.Elbow			L.Wrist			R.Elbow			R.Wrist			
		X1	Y1	Z1	X2	Y2	Z2	X3	Y3	Z3	X4	Y4	Z4	X5	Y5	Z5	X6	Y6	Z6	X7	Y7	Z7	X8	Y8	Z8	X9	Y9	Z9	X10	Y10	Z10	X11	Y11	Z11	X12	Y12	Z12	X13	Y13	Z13	X14	Y14	Z14	X15	Y15	Z15	X16	Y16	Z16	X17	Y17	Z17	X18	Y18	Z18	X19	Y19	Z19	X20	Y20	Z20	X21	Y21	Z21	X22	Y22	Z22	X23	Y23	Z23	X24	Y24	Z24	X25	Y25	Z25	X26	Y26	Z26	X27	Y27	Z27	X28	Y28	Z28	X29	Y29	Z29	X30	Y30	Z30	X31	Y31	Z31	X32	Y32	Z32	X33	Y33	Z33	

89	48.089714285714	823.809148519633	1010.079330729280	496.473262812592	1004.904012100809	1433.621800917056	309.794100877035	1118.330674970406	1355.122916601548	459.477536170091	1053.234123033073	1434.155448905202	638.658129637651	1023.179669200656	1491.568181680820	459.108785814064	1050.467648911082	934.711316088058	601.084750273353	1028.130804942642	958.298583307175	328.630114391536	1095.787653329456	735.880098257949	578.772872949846	1021.971077199193	625.898120338742	647.504941322404	1102.290110697893	568.224062736937	570.441626024663	1095.118916899895	457.390426783327	591.546641821151	1090.840663717058	759.110295602493	360.336327953021	1013.103547958123	637.822100555831	301.671238107981	1103.858056905374	567.116732912305	366.042210604108	1110.095157233155	497.051599957625	375.585478857688	1087.463150119090	423.532591703230	367.714678456401	1006.294579303363	303.718208677547	315.289352991419	1062.396612558142	196.255329478805	388.699037098126	1014.935475554871	393.066111115803	598.468697015881	893.684794820706	358.440610913497	660.770184429615	873.027423245499	250.833052942881	610.714017694280	668.283228418170	194.409935944450	584.827822639921	834.752478820577	132.404750092472	626.092368698891	726.217501781307	136.618785863782	659.770928819618	896.674708644699	30.266495122909	655.876741466233	940.398114270808	37.907380348733	428.419459101148	1017.364861345102	36.009251982513	350.507631068979	1098.689997372950	96.968064597057	380.473242708874	1228.822331632015	45.934142687006	357.821459160688	894.478273146856	1095.673896611669	201.085190319281	980.402212191451	846.713309166844	192.131302183833	1041.762835099511	1088.185730474101	758.066022206813	1213.638763433007	934.354434892768	644.452798139627	
90	48.101642857143	822.799148747689	1010.490815875805	494.123888192834	1006.191949360947	1433.766686524474	307.796322202840	1118.388058695273	1355.122533276006	458.359344370307	1052.213997247456	1434.407952906903	637.071561210388	1023.547284594098	1491.855842973040	457.219771812276	1049.171416355177	935.102006203243	599.673366844147	1027.724362183212	958.730687756803	327.151030610896	1099.511876895557	739.198721400569	576.906843906097	1028.849895748075	627.651156796474	646.013179447207	1110.815555554066	571.635563070022	569.038578034052	1105.353767229838	459.826431151127	590.218656191932	1088.582994111160	758.303940194571	357.869700442149	1009.332156805494	637.915969425413	299.901241162336	1099.315023442618	566.358497115848	364.206120659948	1104.769579809894	496.424173208672	373.929604822486	1081.935938252075	423.096888976803	366.326218132235	1000.273905920278	303.497741384790	314.170065552657	1055.814473168118	196.011375665347	388.044132000658	1023.955286092639	395.720324424924	596.957115223723	901.542942601512	364.082799890850	658.816206357882	878.843699153344	256.774792609180	609.272819157088	673.650175507617	207.374510540274	582.261321277595	837.237684587394	138.029760404312	624.702365270818	728.524224189471	147.145760756927	657.733349571383	894.111486109403	30.651821612563	655.371055540200	933.200988512778	37.942909402057	428.293961870129	1010.165988438215	35.953077651787	350.374202498092	1091.564662208695	96.811324418253	380.302254731284	1221.692534051320	45.566765761769	357.718113787455	897.742950830005	1095.905434360529	196.429042838567	991.146808409945	849.649544659375	187.547086933751	1036.825835173219	1088.655689970769	757.229480797305	1205.544804478724	926.593153954385	649.691242970058	
91	48.113571428571	821.693046922245	1010.931924006759	491.913734589015	1007.341391777102	1433.931618369833	305.990995656249	1118.330776730148	1355.111330863828	457.393171214894	1051.110585511417	1434.613467166919	635.656114695442	1023.880418344705	1492.150184846393	455.545750157680	1047.856278364739	935.625220444380	598.346325528510	1027.233820531925	959.178008293662	325.699408032398	1102.872683699050	742.754273980826	574.956684855582	1035.496797145831	629.765638605417	644.591112534510	1118.950103729343	575.484288814894	567.624078521379	1115.413390801706	462.762894108733	588.860316827352	1086.388732871976	757.584804803589	355.574795556888	1005.587153050353	638.029391771782	298.335413176988	1094.837280340559	565.634230713967	362.521873867916	1099.528818777155	495.827419501329	372.469058367509	1076.482888518961	422.697002964336	365.105141205042	994.290829308590	303.356332544532	313.164560166515	1049.251911112503	195.794119852755	387.444688679868	1032.972746957497	398.707967507472	595.460304544191	909.570611494473	369.665966883292	656.854738592969	885.131750998934	262.673401839859	607.751563808337	679.788982750719	219.292300267086	579.644470938110	840.652990693891	143.769787616606	623.129515885353	731.910462427801	156.985990278895	655.524336722248	893.090632633325	31.816704747796	654.530305010480	926.008533339600	37.991496536580	428.154377188232	1002.975180052095	35.918446395899	350.237040557403	1084.437993139510	96.680640672578	380.137607051307	1214.557177370410	45.250368433934	357.606714031180	901.345490503490	1096.106703026830	191.771165368834	1002.007047163704	852.744548692991	183.072252046371	1031.599604594427	1089.058132586568	756.453632476867	1196.916751947361	918.844250958070	655.567502425959	
92	48.125500000000	820.512374088405	1011.438947019941	489.834404038857	1008.345477561277	1434.146082060833	304.373815426257	1118.169178746795	1355.127218469110	456.561271672292	1049.950142472339	1434.810452899658	634.398793989544	1024.174871681244	1492.473351645952	454.076861345038	1046.533998089412	936.302162887849	597.104339536200	1026.688735447200	959.649596775135	324.289583088397	1105.822967266112	746.511005520074	572.951922119408	1041.838930953442	632.225771890848	643.261497430208	1126.614615037184	579.731648590701	566.218995778991	1125.211081103774	466.169940302855	587.523216204613	1084.259544078870	756.930339528121	353.480321633500	1001.862046545320	638.153121931084	296.995942515477	1090.406827639358	564.932140873936	361.024325939828	1094.352246139813	495.254141660326	371.243471053418	1071.084929508720	422.333048969916	364.077279461908	988.337793643342	303.290722770207	312.294788090909	1042.700219982748	195.604836654303	386.919867012632	1041.920976309113	401.997659073592	594.035013906808	917.692199533894	375.094670149406	654.940661096819	891.870609474101	268.395022997091	606.204443937626	686.579954432924	229.853607045169	577.091070318927	845.060488891945	149.439403973447	621.406040827844	736.380162149902	165.833012040555	653.217456517454	893.850083513255	33.769661991491	653.306147146577	918.817598424646	38.050277968975	428.004891751464	995.789381415577	35.902898468799	350.100287574962	1077.307436031469	96.575735597287	379.982329566299	1207.413124748043	44.985331754999	357.489094265112	905.284953913807	1096.314044637348	187.145361574439	1012.976463110866	856.019015637300	178.753223800908	1026.143091781168	1089.458599673222	755.741276272653	1187.743867808400	911.190121670021	662.038536515576	
93	48.137428571429	819.283411160707	1012.033629787128	487.877131055550	1009.215224277236	1434.427722329933	302.932588859379	1117.919592941596	1355.197375621787	455.848154444843	1048.755011659626	1435.029909550389	633.285721436981	1024.424074828198	1492.838531250874	452.794736236751	1045.212064667708	937.135388743532	595.956443986342	1026.115101798495	960.143093370289	322.945546031219	1108.351583584533	750.425748843584	570.941505463695	1047.827160024282	634.996401008243	642.048278717848	1133.763166266907	584.319417933245	564.851780146005	1134.674953435242	470.001225863031	586.252068981208	1082.177143286530	756.313160529345	351.620449367137	998.156248827475	638.280975712138	295.885379218115	1085.999012549507	564.242508380219	359.741768472074	1089.208827806657	494.696119035439	370.271860124030	1065.715881296829	422.003074992662	363.251366670176	982.403541826535	303.291529918754	311.568994739244	1036.148775473050	195.442941462824	386.481169295268	1050.749382727341	405.541318268318	592.726109256728	925.854387116616	380.264632536782	653.132433065726	899.046427726771	273.802099136278	604.688525222713	693.923602964433	238.819428347783	574.713105322184	850.507858811429	154.846114289689	619.588026617251	741.922771875624	173.435056065081	650.901195430501	896.555612314835	36.401777917554	651.694679541197	911.624325770584	38.116665995392	427.849595720871	988.605379972641	35.902507123052	349.967698439405	1070.171447381337	96.494075867088	379.838062729398	1200.258586451301	44.765309978084	357.368935773934	909.538315168470	1096.563509829297	182.583133856592	1024.049062261320	859.504404715069	174.636613970445	1020.522314510606	1089.917282055868	755.098958867821	1178.026202519574	903.723427500673	669.044703932690	
